<svg viewBox="0 0 24 24" fill="none" xmlns="http://www.w3.org/2000/svg">
<g id=" Figma" clip-path="url(#clip0_612_14802)">
<path id="Vector (Stroke)" fill-rule="evenodd" clip-rule="evenodd" d="M8.75 2C8.01349 2 7.31155 2.28629 6.79747 2.78895C6.28414 3.29087 6 3.96677 6 4.66667C6 5.36657 6.28414 6.04247 6.79747 6.54438C7.31155 7.04705 8.01349 7.33333 8.75 7.33333H11.5V2H8.75ZM13.5 2V7.33333H16.25C16.6142 7.33333 16.9744 7.26316 17.3097 7.12736C17.645 6.99157 17.9482 6.79311 18.2025 6.54438C18.4569 6.29571 18.6574 6.00171 18.7938 5.67977C18.9301 5.35788 19 5.0137 19 4.66667C19 4.31964 18.9301 3.97545 18.7938 3.65356C18.6574 3.33162 18.4569 3.03763 18.2025 2.78895C17.9482 2.54023 17.645 2.34177 17.3097 2.20598C16.9744 2.07017 16.6142 2 16.25 2H13.5ZM19.1884 8.33334C19.3324 8.22191 19.4702 8.10211 19.6008 7.9744C20.0429 7.54211 20.3948 7.02769 20.6353 6.45991C20.8759 5.89208 21 5.28266 21 4.66667C21 4.05067 20.8759 3.44126 20.6353 2.87342C20.3948 2.30564 20.0429 1.79122 19.6008 1.35894C19.1587 0.926696 18.6351 0.584984 18.0605 0.352241C17.4858 0.119512 16.8707 0 16.25 0H8.75C7.49738 0 6.29167 0.486331 5.39923 1.35894C4.50603 2.23228 4 3.42165 4 4.66667C4 5.91169 4.50603 7.10105 5.39923 7.9744C5.53021 8.10247 5.66794 8.22222 5.81158 8.33333C5.66794 8.44445 5.53021 8.5642 5.39923 8.69227C4.50603 9.56562 4 10.755 4 12C4 13.245 4.50603 14.4344 5.39923 15.3077C5.53022 15.4358 5.66795 15.5556 5.81159 15.6667C5.66795 15.7778 5.53022 15.8975 5.39923 16.0256C4.50603 16.899 4 18.0883 4 19.3333C4 20.5784 4.50603 21.7677 5.39923 22.6411C6.29167 23.5137 7.49738 24 8.75 24C10.0026 24 11.2083 23.5137 12.1008 22.6411C12.994 21.7677 13.5 20.5784 13.5 19.3333V15.8051C13.7922 16.0089 14.1073 16.1799 14.4395 16.3144C15.0142 16.5472 15.6293 16.6667 16.25 16.6667C16.8707 16.6667 17.4858 16.5472 18.0605 16.3144C18.6351 16.0817 19.1587 15.74 19.6008 15.3077C20.0429 14.8754 20.3948 14.361 20.6353 13.7932C20.8759 13.2254 21 12.616 21 12C21 11.384 20.8759 10.7746 20.6353 10.2068C20.3948 9.63898 20.0429 9.12456 19.6008 8.69227C19.4702 8.56456 19.3324 8.44476 19.1884 8.33334ZM11.5 14.6667V9.33333H8.75C8.01349 9.33333 7.31155 9.61962 6.79747 10.1223C6.28414 10.6242 6 11.3001 6 12C6 12.6999 6.28414 13.3758 6.79747 13.8777C7.31155 14.3804 8.01349 14.6667 8.75 14.6667H11.5ZM11.5 16.6667H8.75C8.01349 16.6667 7.31155 16.953 6.79747 17.4556C6.28414 17.9575 6 18.6334 6 19.3333C6 20.0332 6.28414 20.7091 6.79747 21.2111C7.31155 21.7137 8.01349 22 8.75 22C9.48651 22 10.1884 21.7137 10.7025 21.2111C11.2159 20.7091 11.5 20.0332 11.5 19.3333V16.6667ZM16.25 9.33333C15.8858 9.33333 15.5256 9.4035 15.1903 9.53931C14.855 9.6751 14.5518 9.87356 14.2975 10.1223C14.0431 10.371 13.8426 10.665 13.7062 10.9869C13.5699 11.3088 13.5 11.653 13.5 12C13.5 12.347 13.5699 12.6912 13.7062 13.0131C13.8426 13.335 14.0431 13.629 14.2975 13.8777C14.5518 14.1264 14.855 14.3249 15.1903 14.4607C15.5256 14.5965 15.8858 14.6667 16.25 14.6667C16.6142 14.6667 16.9744 14.5965 17.3097 14.4607C17.645 14.3249 17.9482 14.1264 18.2025 13.8777C18.4569 13.629 18.6574 13.335 18.7938 13.0131C18.9301 12.6912 19 12.347 19 12C19 11.653 18.9301 11.3088 18.7938 10.9869C18.6574 10.665 18.4569 10.371 18.2025 10.1223C17.9482 9.87356 17.645 9.6751 17.3097 9.53931C16.9744 9.4035 16.6142 9.33333 16.25 9.33333Z" fill="currentColor"/>
</g>
<defs>
<clipPath id="clip0_612_14802">
<rect width="24" height="24" fill="white"/>
</clipPath>
</defs>
</svg>
