<svg viewBox="0 0 24 24" fill="none" xmlns="http://www.w3.org/2000/svg">
<g id="Vector">
<path id="Vector_2" d="M11.9998 9.81812V14.4654H18.4579C18.1743 15.9599 17.3233 17.2254 16.047 18.0763L19.9415 21.0982C22.2106 19.0037 23.5197 15.9273 23.5197 12.2728C23.5197 11.4219 23.4433 10.6036 23.3015 9.81825L11.9998 9.81812Z" fill="currentColor"/>
<path id="Vector_3" d="M5.27461 14.2839L4.39625 14.9563L1.28711 17.3781C3.26165 21.2944 7.30862 23.9999 11.9995 23.9999C15.2394 23.9999 17.9557 22.9308 19.9412 21.0981L16.0467 18.0763C14.9776 18.7963 13.614 19.2327 11.9995 19.2327C8.87951 19.2327 6.22868 17.1273 5.27952 14.2909L5.27461 14.2839Z" fill="currentColor"/>
<path id="Vector_4" d="M1.28718 6.62183C0.469042 8.23631 0 10.0581 0 11.9999C0 13.9417 0.469042 15.7636 1.28718 17.378C1.28718 17.3889 5.27997 14.2799 5.27997 14.2799C5.03998 13.5599 4.89812 12.7963 4.89812 11.9998C4.89812 11.2033 5.03998 10.4398 5.27997 9.71976L1.28718 6.62183Z" fill="currentColor"/>
<path id="Vector_5" d="M11.9997 4.77818C13.767 4.77818 15.3379 5.38907 16.5925 6.56727L20.0288 3.13095C17.9452 1.18917 15.2398 0 11.9997 0C7.30887 0 3.26165 2.69454 1.28711 6.62183L5.27978 9.72001C6.22882 6.88362 8.87976 4.77818 11.9997 4.77818Z" fill="currentColor"/>
</g>
</svg>
