<svg viewBox="0 0 24 24" fill="none" xmlns="http://www.w3.org/2000/svg">
<g id=" Outlook" clip-path="url(#clip0_612_14804)">
<g id="Vector">
<path d="M14.8555 5.08838V9.78291L16.496 10.8159C16.5393 10.8285 16.633 10.8294 16.6763 10.8159L23.737 6.05559C23.737 5.49221 23.2115 5.08838 22.915 5.08838H14.8555Z" fill="currentColor"/>
<path d="M14.8554 11.5344L16.3526 12.5629C16.5636 12.718 16.8178 12.5629 16.8178 12.5629C16.5645 12.718 23.7379 7.95312 23.7379 7.95312V16.5814C23.7379 17.5207 23.1366 17.9146 22.4606 17.9146H14.8545L14.8554 11.5344Z" fill="currentColor"/>
<path d="M7.10311 9.37014C6.59291 9.37014 6.18637 9.60991 5.8862 10.0886C5.58603 10.5672 5.4355 11.2009 5.4355 11.9896C5.4355 12.7901 5.58603 13.4229 5.8862 13.888C6.18637 14.354 6.58029 14.5857 7.06705 14.5857C7.56913 14.5857 7.96756 14.3594 8.26142 13.9069C8.55527 13.4544 8.7031 12.8261 8.7031 12.023C8.7031 11.1856 8.56068 10.5339 8.27494 10.0678C7.98919 9.6027 7.59888 9.37014 7.10311 9.37014Z" fill="currentColor"/>
<path d="M0 2.70423V21.0704L13.9718 24V0L0 2.70423ZM9.34941 14.9922C8.75899 15.7692 7.98918 16.1586 7.0391 16.1586C6.11335 16.1586 5.35978 15.7819 4.77656 15.0292C4.19425 14.2756 3.9022 13.2949 3.9022 12.0852C3.9022 10.8079 4.19786 9.77487 4.79008 8.98614C5.38231 8.19741 6.16654 7.80259 7.14276 7.80259C8.0649 7.80259 8.81127 8.17938 9.38006 8.93476C9.94975 9.69014 10.2346 10.6853 10.2346 11.9211C10.2355 13.1912 9.93983 14.2152 9.34941 14.9922Z" fill="currentColor"/>
</g>
</g>
<defs>
<clipPath id="clip0_612_14804">
<rect width="24" height="24" fill="white"/>
</clipPath>
</defs>
</svg>
