<svg viewBox="0 0 24 24" fill="none" xmlns="http://www.w3.org/2000/svg">
<g id="Prezly">
<path id="icon-shape" d="M17.5063 8.09353L17.4789 8.07755L17.4034 8.03369C17.3403 7.99721 17.2547 7.94761 17.1633 7.89556C16.9813 7.79186 16.7735 7.67627 16.6796 7.63446C16.48 7.54593 16.3107 7.59142 16.1468 7.67955C16.0439 7.73529 15.9389 7.80251 15.8496 7.86072L15.7615 7.91933C15.7127 7.95212 15.6733 7.97835 15.6475 7.99393L15.6217 8.01032L12.6705 9.97776C12.3152 10.211 12.0717 10.3253 11.8073 10.3335C11.543 10.3417 11.2466 10.2425 10.7888 10.0294L4.35363 6.97455C4.15443 6.87044 4.09254 6.71428 4.1077 6.57C4.11709 6.49535 4.14434 6.42407 4.18716 6.3622C4.22997 6.30034 4.28708 6.24972 4.35363 6.21463L10.8462 2.41831C11.1482 2.22525 11.4421 2.13672 11.7315 2.14041C12.0209 2.14409 12.3103 2.23837 12.5996 2.41831L20.4571 7.04997C20.4689 7.05657 20.4804 7.06383 20.4915 7.07169C20.6172 7.16035 20.7203 7.27725 20.7927 7.413C20.865 7.54875 20.9045 7.69957 20.9079 7.85334V7.85539C20.9088 7.86794 20.9088 7.88054 20.9079 7.8931L20.2447 16.9662C20.2447 17.5097 19.809 17.895 19.2557 17.895C19.2557 17.895 13.0095 18.3627 12.6484 18.375C12.3077 18.3866 12.0684 18.432 11.8877 18.5164C11.7506 18.5845 11.6228 18.6698 11.5073 18.7701L11.4589 18.8091C11.4589 18.8091 10.6364 19.4489 9.70999 20.342C9.57309 20.474 9.17714 20.8655 8.9927 20.904C8.82546 20.9388 8.60943 20.8654 8.52131 20.7257C8.40367 20.54 8.33112 20.2617 8.25325 20.0125C8.13479 19.6329 8.10897 19.4948 8.02822 19.2337C7.94747 18.9726 7.85402 18.7681 7.6085 18.5336C7.38184 18.3332 7.11664 18.2746 6.71742 18.2315C6.71742 18.2315 4.91394 17.9926 4.7008 17.9446C4.48766 17.8967 4.19009 17.834 4.02449 17.6885C3.8589 17.5429 3.74618 17.3105 3.7093 16.9716L3.32852 12.4424C3.32524 12.4014 3.32237 12.3637 3.31991 12.3247V12.3186C3.31745 12.2817 3.3154 12.2448 3.31212 12.2087C3.30703 12.1334 3.29328 12.0588 3.27113 11.9866C3.22359 11.8407 3.12439 11.7173 2.91412 11.6263L1.74678 11.0775C1.67967 11.0411 1.60388 11.0238 1.52765 11.0275C1.45141 11.0312 1.37764 11.0557 1.31436 11.0984C1.28154 11.1259 1.25485 11.16 1.236 11.1985C1.21715 11.237 1.20656 11.2789 1.20492 11.3218C1.19846 11.3956 1.19655 11.4698 1.19918 11.5439C1.19918 11.5718 1.19918 11.6005 1.19918 11.6296V11.6632L1.56807 16.9199C1.63078 18.0578 1.95295 18.8652 2.49318 19.3968C3.0334 19.9285 3.78266 20.1346 4.69752 20.2166C5.05904 20.2482 5.44146 20.3084 5.54065 20.342C5.54516 20.342 5.73493 20.4031 5.84191 20.5154C5.89648 20.5662 5.93857 20.6289 5.96488 20.6986C6.00371 20.7882 6.03751 20.8799 6.06612 20.9732C6.15916 21.2856 6.46288 22.3004 6.55142 22.5894C6.65635 22.9329 6.82317 23.276 7.10927 23.5555C7.37364 23.8141 7.8655 24.0191 8.31637 23.9986C8.76724 23.9781 9.03407 23.8621 9.3919 23.5887C10.3658 22.8509 12.4193 21.0503 12.6119 20.8835C12.8046 20.7167 12.9859 20.6247 13.2509 20.6109C14.7105 20.5351 16.9108 20.3994 19.2537 20.2141C20.4079 20.1252 21.3408 19.8383 21.8507 19.2353C22.3606 18.6324 22.5475 17.8258 22.5475 16.9716C22.5473 16.9679 22.5473 16.9642 22.5475 16.9605L23.2152 7.90211C23.2152 7.89802 23.2152 7.89351 23.2152 7.88941V7.85375C23.207 6.82904 22.5364 5.87443 21.6937 5.29896L21.658 5.27682L13.5272 0.52793C13.0136 0.184973 12.4101 0.00131961 11.7925 7.08463e-06C11.1748 -0.00130544 10.5706 0.179781 10.0555 0.520552L10.0338 0.533259L1.82876 5.16984L1.78777 5.19444C0.583537 6.0142 0.811021 7.77136 2.12223 8.40955L10.3662 12.3342C11.4315 12.9113 12.3537 12.8703 13.4809 12.071L17.9638 9.23054C18.0818 9.16475 18.1817 9.07066 18.2544 8.95674C18.29 8.89794 18.3084 8.83037 18.3076 8.76164C18.304 8.68386 18.2752 8.60936 18.2257 8.54932L18.2039 8.51981C18.1926 8.50403 18.1787 8.49019 18.163 8.47882L18.0847 8.42676L18.0752 8.42103L17.508 8.09312L17.5063 8.09353Z" fill="currentColor"/>
</g>
</svg>
